<svg width="64" height="64" viewBox="0 0 64 64" fill="none" xmlns="http://www.w3.org/2000/svg">
  <defs>
    <linearGradient id="gold-grad" x1="0%" y1="0%" x2="100%" y2="100%">
      <stop offset="0%" style="stop-color:#F4E4A6;stop-opacity:1" />
      <stop offset="50%" style="stop-color:#D4AF37;stop-opacity:1" />
      <stop offset="100%" style="stop-color:#B8860B;stop-opacity:1" />
    </linearGradient>
    <filter id="shadow">
      <feDropShadow dx="2" dy="2" stdDeviation="2" flood-color="rgba(0,0,0,0.3)" />
    </filter>
  </defs>
  <path d="M56 16C54 17 52 18 50 18C52 16 54 14 54 12C52 13 50 14 48 14C46 12 42 12 40 12C34 12 30 16 30 22V24C22 24 14 20 8 12C6 16 8 22 12 24C10 24 8 24 6 23V24C6 28 10 32 14 33C12 34 10 34 8 34C10 38 14 40 18 40C14 43 10 44 4 44C10 48 16 50 24 50C44 50 56 34 56 20V18C58 17 58 16 56 16Z" fill="url(#gold-grad)" filter="url(#shadow)"/>
</svg>
