<svg width="48" height="48" viewBox="0 0 24 24" fill="none" xmlns="http://www.w3.org/2000/svg">
<path d="M9 20C9 21.1046 8.10457 22 7 22C5.89543 22 5 21.1046 5 20C5 18.8954 5.89543 18 7 18C8.10457 18 9 18.8954 9 20Z" fill="#0F3D2E"/>
<path d="M21 20C21 21.1046 20.1046 22 19 22C17.8954 22 17 21.1046 17 20C17 18.8954 17.8954 18 19 18C20.1046 18 21 18.8954 21 20Z" fill="#0F3D2E"/>
<path d="M1 1H4.27096L5.68 15.09C5.78 16.03 6.57 16.74 7.51 16.74H19.34C20.24 16.74 21.01 16.08 21.16 15.19L22.84 5.17C22.98 4.35 22.35 3.61 21.52 3.61H5.5" stroke="#0F3D2E" stroke-width="2" stroke-linecap="round" stroke-linejoin="round"/>
</svg>
